<?xml version="1.0" encoding="UTF-8" standalone="no" ?>
<!DOCTYPE svg PUBLIC "-//W3C//DTD SVG 1.1//EN" "http://www.w3.org/Graphics/SVG/1.1/DTD/svg11.dtd">
<svg xmlns="http://www.w3.org/2000/svg" xmlns:xlink="http://www.w3.org/1999/xlink" version="1.1" width="640" height="640" viewBox="0 0 640 640" xml:space="preserve">
<desc>Created with Fabric.js 5.3.0</desc>
<defs>
</defs>
<g transform="matrix(0 6.016 -6.016 0 320 320)" id="puiEmNVg4TD0uKrzqmxVq"  >
<linearGradient id="SVGID_519" gradientUnits="userSpaceOnUse" gradientTransform="matrix(1 0 0 1 -53.1914893617 -53.1914893617)"  x1="0" y1="53.19148936170211" x2="106.38297872340422" y2="53.19148936170211">
<stop offset="0%" style="stop-color:#8ABFDB;stop-opacity: 1"/>
<stop offset="100%" style="stop-color:#AC59FD;stop-opacity: 1"/>
</linearGradient>
<path style="stroke: rgb(129,255,107); stroke-width: 0; stroke-dasharray: none; stroke-linecap: butt; stroke-dashoffset: 0; stroke-linejoin: miter; stroke-miterlimit: 4; fill: url(#SVGID_519); fill-rule: nonzero; opacity: 1;"  transform=" translate(0, 0)" d="M 0 -53.19149 C 29.3617 -53.19149 53.19149 -29.361700000000003 53.19149 0 C 53.19149 29.3617 29.361700000000003 53.19149 0 53.19149 C -29.3617 53.19149 -53.19149 29.361700000000003 -53.19149 0 C -53.19149 -29.3617 -29.361700000000003 -53.19149 0 -53.19149 z" stroke-linecap="round" />
</g>
<g transform="matrix(1 0 0 1 200 136.8131720986)" id="SL74ZUNxTKRaRSJej_lQT"  >
<g style=""   >
		<g transform="matrix(1.7407407283 0 0 0.1627716235 0.3336224849 52.1378169233)" id="BWdiSsFvIk-nQ8FpUDM7p"  >
<path style="stroke: rgb(0,0,0); stroke-width: 0; stroke-dasharray: none; stroke-linecap: butt; stroke-dashoffset: 0; stroke-linejoin: miter; stroke-miterlimit: 4; fill: rgb(255,255,255); fill-rule: nonzero; opacity: 1;"  transform=" translate(0, 0)" d="M -28.7234 -28.7234 L 28.723409999999998 -28.7234 L 28.723409999999998 28.723409999999998 L -28.7234 28.723409999999998 z" stroke-linecap="round" />
</g>
		<g transform="matrix(0.7201895917 0 0 0.4812534021 0 -8.4693826667)" id="brgNrqCZ-WyGVn7sBzXUl"  >
<path style="stroke: rgb(255,255,255); stroke-width: 21; stroke-dasharray: none; stroke-linecap: butt; stroke-dashoffset: 0; stroke-linejoin: miter; stroke-miterlimit: 4; fill: none; fill-rule: nonzero; opacity: 1;"  transform=" translate(0, 0)" d="M -89.95392 -40.53352 C -89.95392 -67.82765 -75.16844999999999 -89.95392000000001 -56.929649999999995 -89.95392000000001 L 56.92965000000001 -89.95392000000001 L 56.92965000000001 -89.95392000000001 C 75.16845 -89.95392000000001 89.95392000000001 -67.82765 89.95392000000001 -40.53352000000001 L 89.95392000000001 40.533519999999996 L 89.95392000000001 40.533519999999996 C 89.95392000000001 67.82764999999999 75.16845 89.95392 56.92965000000001 89.95392 L -56.929649999999995 89.95392 L -56.929649999999995 89.95392 C -75.16844999999999 89.95392 -89.95392 67.82764999999999 -89.95392 40.533519999999996 z" stroke-linecap="round" />
</g>
		<g transform="matrix(0 0.7298786273 -0.7175458087 0 5.4064709918 -6.3732565025)" id="QS1KLG4bfCtNI-fSNqJmb"  >
<path style="stroke: none; stroke-width: 1; stroke-dasharray: none; stroke-linecap: butt; stroke-dashoffset: 0; stroke-linejoin: miter; stroke-miterlimit: 4; fill: rgb(255,255,255); fill-rule: nonzero; opacity: 1;"  transform=" translate(-40, -40)" d="M 60 40 L 80 80 L 40 80 L 0 80 L 20 40 L 40 0 L 60 40 z" stroke-linecap="round" />
</g>
</g>
</g>
<g transform="matrix(1 0 0 1 200 503.1868279014)" id="yDXiB5i9VFJWRjhC6MaXP"  >
<g style=""   >
		<g transform="matrix(1.7407407283 0 0 0.1627716235 0.3336224849 52.1378169233)" id="BEKJrKRatm45wRwBIvIY6"  >
<path style="stroke: rgb(0,0,0); stroke-width: 0; stroke-dasharray: none; stroke-linecap: butt; stroke-dashoffset: 0; stroke-linejoin: miter; stroke-miterlimit: 4; fill: rgb(255,255,255); fill-rule: nonzero; opacity: 1;"  transform=" translate(-0.000005, -0.000005)" d="M -28.7234 -28.7234 L 28.723409999999998 -28.7234 L 28.723409999999998 28.723409999999998 L -28.7234 28.723409999999998 z" stroke-linecap="round" />
</g>
		<g transform="matrix(0.7201895917 0 0 0.4812534021 0 -8.4693826667)" id="aAp7d2TctgS6x0HhPW7Ht"  >
<path style="stroke: rgb(255,255,255); stroke-width: 21; stroke-dasharray: none; stroke-linecap: butt; stroke-dashoffset: 0; stroke-linejoin: miter; stroke-miterlimit: 4; fill: none; fill-rule: nonzero; opacity: 1;"  transform=" translate(0, 0)" d="M -89.95392 -40.53352 C -89.95392 -67.82765 -75.16844999999999 -89.95392000000001 -56.929649999999995 -89.95392000000001 L 56.92965000000001 -89.95392000000001 L 56.92965000000001 -89.95392000000001 C 75.16845 -89.95392000000001 89.95392000000001 -67.82765 89.95392000000001 -40.53352000000001 L 89.95392000000001 40.533519999999996 L 89.95392000000001 40.533519999999996 C 89.95392000000001 67.82764999999999 75.16845 89.95392 56.92965000000001 89.95392 L -56.929649999999995 89.95392 L -56.929649999999995 89.95392 C -75.16844999999999 89.95392 -89.95392 67.82764999999999 -89.95392 40.533519999999996 z" stroke-linecap="round" />
</g>
		<g transform="matrix(0 0.7298786273 -0.7175458087 0 5.4064709918 -6.3732565025)" id="b27nfuXw7vfTKxAW5qkQR"  >
<path style="stroke: none; stroke-width: 1; stroke-dasharray: none; stroke-linecap: butt; stroke-dashoffset: 0; stroke-linejoin: miter; stroke-miterlimit: 4; fill: rgb(255,255,255); fill-rule: nonzero; opacity: 1;"  transform=" translate(-40, -40)" d="M 60 40 L 80 80 L 40 80 L 0 80 L 20 40 L 40 0 L 60 40 z" stroke-linecap="round" />
</g>
</g>
</g>
<g transform="matrix(1 0 0 1 540 313.1465054319)" id="vV-R9x0GDdKVVVMCNdGaz"  >
<g style=""   >
		<g transform="matrix(1.7407407283 0 0 0.1627716235 0.3336224849 52.1378169233)" id="C49-BOAWUmyZCVd4gLYg_"  >
<path style="stroke: rgb(0,0,0); stroke-width: 0; stroke-dasharray: none; stroke-linecap: butt; stroke-dashoffset: 0; stroke-linejoin: miter; stroke-miterlimit: 4; fill: rgb(255,255,255); fill-rule: nonzero; opacity: 1;"  transform=" translate(-0.000005, -0.000005)" d="M -28.7234 -28.7234 L 28.723409999999998 -28.7234 L 28.723409999999998 28.723409999999998 L -28.7234 28.723409999999998 z" stroke-linecap="round" />
</g>
		<g transform="matrix(0.7201895917 0 0 0.4812534021 0 -8.4693826667)" id="tbCvhfXRjo2zzra8ZX6GM"  >
<path style="stroke: rgb(255,255,255); stroke-width: 21; stroke-dasharray: none; stroke-linecap: butt; stroke-dashoffset: 0; stroke-linejoin: miter; stroke-miterlimit: 4; fill: none; fill-rule: nonzero; opacity: 1;"  transform=" translate(0, 0)" d="M -89.95392 -40.53352 C -89.95392 -67.82765 -75.16844999999999 -89.95392000000001 -56.929649999999995 -89.95392000000001 L 56.92965000000001 -89.95392000000001 L 56.92965000000001 -89.95392000000001 C 75.16845 -89.95392000000001 89.95392000000001 -67.82765 89.95392000000001 -40.53352000000001 L 89.95392000000001 40.533519999999996 L 89.95392000000001 40.533519999999996 C 89.95392000000001 67.82764999999999 75.16845 89.95392 56.92965000000001 89.95392 L -56.929649999999995 89.95392 L -56.929649999999995 89.95392 C -75.16844999999999 89.95392 -89.95392 67.82764999999999 -89.95392 40.533519999999996 z" stroke-linecap="round" />
</g>
		<g transform="matrix(0 0.7298786273 -0.7175458087 0 5.4064709918 -6.3732565025)" id="jfWW_16oDQrltYk97Mszq"  >
<path style="stroke: none; stroke-width: 1; stroke-dasharray: none; stroke-linecap: butt; stroke-dashoffset: 0; stroke-linejoin: miter; stroke-miterlimit: 4; fill: rgb(255,255,255); fill-rule: nonzero; opacity: 1;"  transform=" translate(-40, -40)" d="M 60 40 L 80 80 L 40 80 L 0 80 L 20 40 L 40 0 L 60 40 z" stroke-linecap="round" />
</g>
</g>
</g>
<g transform="matrix(0.496 0 0 2.604 198.9485842612 321.5081933319)" id="5VUqcJeQSxE_ACW-hn2tV"  >
<path style="stroke: rgb(255,255,255); stroke-width: 0; stroke-dasharray: none; stroke-linecap: butt; stroke-dashoffset: 0; stroke-linejoin: miter; stroke-miterlimit: 4; fill: rgb(255,255,255); fill-rule: nonzero; opacity: 1;"  transform=" translate(0, 0)" d="M -40.32258 -34.40023 C -40.32258 -37.67105 -26.402070000000002 -40.32258 -9.230250000000002 -40.32258 L 9.230239999999998 -40.32258 L 9.230239999999998 -40.32258 C 26.40206 -40.32258 40.32257 -37.67105 40.32257 -34.40023 L 40.32257 34.40023 L 40.32257 34.40023 C 40.32257 37.67105 26.40206 40.32258 9.230239999999998 40.32258 L -9.230250000000002 40.32258 L -9.230250000000002 40.32258 C -26.402070000000002 40.32258 -40.32258 37.67105 -40.32258 34.40023 z" stroke-linecap="round" />
</g>
<g transform="matrix(0.25200024 -0.4364772192 1.910692676 1.1031389308 364.2053595151 213.0812963714)" id="q4qFWyDst2vVoFItCiW7K"  >
<path style="stroke: rgb(255,255,255); stroke-width: 0; stroke-dasharray: none; stroke-linecap: butt; stroke-dashoffset: 0; stroke-linejoin: miter; stroke-miterlimit: 4; fill: rgb(255,255,255); fill-rule: nonzero; opacity: 1;"  transform=" translate(0, 0)" d="M -40.32258 -32.56861 C -40.32258 -36.85101 -25.125660000000003 -40.32258 -6.379310000000004 -40.32258 L 6.379319999999996 -40.32258 L 6.379319999999996 -40.32258 C 25.125669999999996 -40.32258 40.32258999999999 -36.85101 40.32258999999999 -32.56861 L 40.32258999999999 32.568599999999996 L 40.32258999999999 32.568599999999996 C 40.32258999999999 36.851 25.125669999999992 40.32257 6.379319999999993 40.32257 L -6.379310000000007 40.32257 L -6.379310000000007 40.32257 C -25.125660000000007 40.32257 -40.32258 36.851 -40.32258 32.568599999999996 z" stroke-linecap="round" />
</g>
<g transform="matrix(0.25200024 0.4364772192 -1.910692676 1.1031389308 364.2053498255 408.9187079557)" id="u1cr9tjmRjnsAVaNKAhAb"  >
<path style="stroke: rgb(255,255,255); stroke-width: 0; stroke-dasharray: none; stroke-linecap: butt; stroke-dashoffset: 0; stroke-linejoin: miter; stroke-miterlimit: 4; fill: rgb(255,255,255); fill-rule: nonzero; opacity: 1;"  transform=" translate(-0.000005, 0.000005)" d="M -40.32258 -32.56861 C -40.32258 -36.85101 -25.125660000000003 -40.32258 -6.379310000000004 -40.32258 L 6.379319999999996 -40.32258 L 6.379319999999996 -40.32258 C 25.125669999999996 -40.32258 40.32258999999999 -36.85101 40.32258999999999 -32.56861 L 40.32258999999999 32.568599999999996 L 40.32258999999999 32.568599999999996 C 40.32258999999999 36.851 25.125669999999992 40.32257 6.379319999999993 40.32257 L -6.379310000000007 40.32257 L -6.379310000000007 40.32257 C -25.125660000000007 40.32257 -40.32258 36.851 -40.32258 32.568599999999996 z" stroke-linecap="round" />
</g>
</svg>